<svg id="Classic_Logo" data-name="Classic Logo" xmlns="http://www.w3.org/2000/svg" viewBox="0 0 855.31 130"><defs><style>.cls-1{fill:#f0ebe7;}.cls-2{fill:#ddff4b;}</style></defs><g id="Wordmark"><path class="cls-1" d="M95.29,1.84a6.77,6.77,0,0,1,6.55,8.46L76.28,109.4a11.28,11.28,0,0,1-10.9,8.37H41a11.28,11.28,0,0,1-10.8-8L.29,10.56A6.77,6.77,0,0,1,6.77,1.84H32.61a6.78,6.78,0,0,1,6.61,5.31L51.66,63.48a1.7,1.7,0,0,0,3.31,0l11-56.17a6.78,6.78,0,0,1,6.65-5.47Z"/><path class="cls-1" d="M168.32,0C153,.34,135.91,2,122.13,6.73a11.36,11.36,0,0,0-7.71,10.71V34.89a5.64,5.64,0,0,0,7.36,5.37c16-5.08,52.74-15.1,52.74-.32a3.59,3.59,0,0,1-3.59,3.59,4,4,0,0,1-.6,0c-5.39-.91-15.82-1.85-30.24.42-21.79,3.44-34.66,19.69-34.66,36.33s9.73,39.37,45.52,39.37c0,0,14.51-.24,21.62-5.94a2.24,2.24,0,0,1,3.38.6l1.45,2.63a1.71,1.71,0,0,0,1.49.87h22.75a6.87,6.87,0,0,0,6.87-6.86V39.49A39.45,39.45,0,0,0,168.32,0Zm-11,91.14c-9.51,0-17.22-4.89-17.22-10.91s7.71-10.91,17.22-10.91,17.21,4.88,17.21,10.91S166.82,91.15,157.31,91.15Z"/><path class="cls-1" d="M251.63,89.79,218.74,11A6.77,6.77,0,0,1,225,1.61h25.15a6.77,6.77,0,0,1,6.49,4.85l14.43,48.89a1.69,1.69,0,0,0,3.26-.06L286.89,6.91a6.77,6.77,0,0,1,6.55-5.07h22.18a6.77,6.77,0,0,1,6.39,9L290,103.28A39.72,39.72,0,0,1,252.42,130H232.24a7.9,7.9,0,0,1-7.9-7.9V100.48a6.77,6.77,0,0,1,7.39-6.74l15.93,1.45A3.91,3.91,0,0,0,251.63,89.79Z"/><path class="cls-1" d="M385.64,0c-33.73,0-61.08,26.8-61.08,59.86s27.35,59.86,61.08,59.86,61.06-26.8,61.06-59.86S419.36,0,385.64,0Zm0,85.35c-13.69,0-24.76-11.42-24.76-25.49S372,34.38,385.64,34.38,410.4,45.79,410.4,59.86,399.31,85.35,385.64,85.35Z"/><path class="cls-1" d="M514.66,0c-33.73,0-61.07,26.8-61.07,59.86s27.34,59.86,61.07,59.86,61.06-26.8,61.06-59.86S548.39,0,514.66,0Zm0,85.35c-13.68,0-24.76-11.42-24.76-25.49S501,34.38,514.66,34.38s24.76,11.41,24.76,25.48S528.33,85.35,514.66,85.35Z"/></g><rect class="cls-2" x="613.22" y="1.84" width="242.09" height="58.62"/><path d="M651.8,28.77V49.18h-6.45V30c0-1.51-.81-2.6-2.16-2.6s-2.49,1.2-2.49,3.09V49.18h-6.5v-19c0-1.68-.87-2.77-2.17-2.77s-2.43,1-2.43,3V49.18h-6.45V22.11H629l.6,2.22H630A5.3,5.3,0,0,1,635,21.57a5.11,5.11,0,0,1,4.92,3.14h.44a5.7,5.7,0,0,1,5.57-3.14C649.25,21.57,651.8,23.68,651.8,28.77Z"/><path d="M683.8,44v5.2h-2.93c-2.54,0-4.55-.7-5.47-3.25-1.78,2.33-4.6,3.79-8.77,3.79-5.47,0-9.53-2.59-9.53-7.9s3.95-7.8,9-8.29l8.18-.92V31.53c0-3-1.9-4.49-4.55-4.49-2.82,0-4.23,1.62-4.66,4.11h-6.93c.49-5.58,4.82-9.58,11.75-9.58,6.23,0,11.32,3.19,11.32,10.45V42a1.74,1.74,0,0,0,1.95,2Zm-9.53-6.55-5.74.65c-2.66.27-4.5,1.25-4.5,3.36s1.68,3,3.85,3c2.76,0,6.39-1.41,6.39-5.63Z"/><path d="M703.94,36.46V44h9.91v5.14H689.48V44H697V27.25h-7.26V22.11h13.48l.6,4.38h.49c1.84-3.19,4-4.92,9.74-4.92h2.12V28.5a21.82,21.82,0,0,0-3.25-.22C706.75,28.28,703.94,31.69,703.94,36.46Z"/><path d="M737,33.1l11.64,16.08H741L732.26,37.6l-2.66,2.49v9.09h-6.93V10.74h6.93v20.9H730l10.28-9.53h8.29Z"/><path d="M773.62,40.63h6.61c-1,5.57-5.63,9.09-12.35,9.09-7.9,0-13.7-5.46-13.7-13.8,0-8.94,6.07-14.35,13.43-14.35,6.55,0,12.62,4.22,12.62,13.91,0,.65-.05,1.25-.11,2H760.9c.27,3.9,2.92,6.71,7,6.71C770.81,44.2,772.92,43,773.62,40.63ZM761,32.83h12.62a5.69,5.69,0,0,0-6-5.74A6.6,6.6,0,0,0,761,32.83Z"/><path d="M808,44.09a16,16,0,0,0,3.35-.43v5.41a21.65,21.65,0,0,1-5.25.65c-6.39,0-10.83-2.49-10.83-9.63V27.58H787V22.11h4.22c3.36,0,4.82-1.36,4.82-4.88V14.74h6.17v7.37h10.61v5.47H802.21V39C802.21,42.41,804.05,44.09,808,44.09Z"/><path d="M832.7,49.72c-8.34,0-12.3-3.62-12.68-9.2h6.72c.38,3.09,2.81,4,6,4,2.59,0,5-.76,5-2.82,0-1.62-1.36-2.65-5.31-3.52l-2.71-.59c-5-1.09-8.72-2.71-8.72-7.7,0-5.46,4.88-8.33,10.83-8.33,7.53,0,11.27,3.9,11.65,8.28H836.7c-.27-1.89-2.16-3.09-4.93-3.09-2.54,0-4.38,1-4.38,2.77s1.89,2.32,5.31,3.08l2.38.54c5.74,1.3,8.93,3.63,8.93,8.4C844,47.23,838.65,49.72,832.7,49.72Z"/></svg>